<svg xmlns="http://www.w3.org/2000/svg" viewBox="0 0 3210 576" role="img" aria-label="AXON">
  <title>AXON</title>
  <path fill="#c5ff3a" fill-rule="evenodd" d="M1625 106L1625 115L1618 124L1619 133L1612 141L1613 152L1606 157L1606 409L1613 418L1612 434L1619 442L1618 451L1624 458L1624 467L1636 482L1637 490L1643 495L1649 509L1680 540L1707 553L1719 564L1732 565L1749 571L1752 575L2243 575L2245 571L2258 570L2263 565L2274 565L2281 559L2288 559L2315 540L2359 496L2359 488L2370 478L2376 454L2382 449L2382 441L2389 435L2389 140L2382 134L2370 97L2358 85L2359 79L2315 35L2300 28L2288 16L2281 16L2274 10L2263 10L2258 5L2245 4L2243 0L1752 0L1747 5L1714 16L1680 35L1649 66L1643 80L1637 85L1636 93Z M22 575L168 575L294 346L448 96L590 337L438 341L365 444L368 457L657 457L725 575L978 575L1194 372L1404 575L1590 575L1289 293L1585 0L1415 0L1192 214L966 0L784 0L1091 291L848 526L811 477L540 0L353 0Z M2464 0L2464 575L2587 575L2588 133L2687 232L2688 239L3005 575L3187 575L3187 0L3064 0L3062 443L3001 387L3000 378L2887 267L2879 251L2784 157L2778 145L2730 97L2730 91L2640 0Z M1741 152L1766 127L1771 127L1778 121L2219 120L2227 127L2234 127L2255 148L2255 153L2260 158L2262 166L2266 169L2268 348L2266 357L2266 400L2261 405L2261 415L2255 422L2255 427L2234 448L2227 448L2219 455L2210 455L2205 460L1796 460L1793 455L1781 455L1774 449L1765 448L1761 443L1755 442L1752 439L1751 434L1741 423L1740 415L1734 409L1734 392L1729 387L1729 188L1734 183L1734 166L1740 160Z"/>
</svg>
